<?xml version="1.0" standalone="no"?><!DOCTYPE svg PUBLIC "-//W3C//DTD SVG 1.1//EN" "http://www.w3.org/Graphics/SVG/1.1/DTD/svg11.dtd"><svg t="1645859460882" class="icon" viewBox="0 0 1024 1024" version="1.1" xmlns="http://www.w3.org/2000/svg" p-id="4321" width="16" height="16" xmlns:xlink="http://www.w3.org/1999/xlink"><defs><style type="text/css"></style></defs><path d="M896 992h-224v-64h224a32 32 0 0 0 32-32v-224h64v224a96 96 0 0 1-96 96z m32-864a32 32 0 0 0-32-32h-224V32h224a96 96 0 0 1 96 96v224h-64V128zM96 128v224H32V128a96 96 0 0 1 96-96h224v64H128a32 32 0 0 0-32 32z m896 416H32v-64h960v64zM96 896a32 32 0 0 0 32 32h224v64H128a96 96 0 0 1-96-96v-224h64v224z" p-id="4322" fill="#1296db"></path></svg>