<?xml version="1.0" standalone="no"?><!DOCTYPE svg PUBLIC "-//W3C//DTD SVG 1.1//EN" "http://www.w3.org/Graphics/SVG/1.1/DTD/svg11.dtd"><svg t="1645881247334" class="icon" viewBox="0 0 1024 1024" version="1.1" xmlns="http://www.w3.org/2000/svg" p-id="25160" xmlns:xlink="http://www.w3.org/1999/xlink" width="32" height="32"><defs><style type="text/css"></style></defs><path d="M315.63776 675.40992l107.6224-26.13248L805.4784 267.07968a20.48 20.48 0 0 0 0-28.95872l-43.43808-43.43808a20.48 20.48 0 0 0-28.95872 0L347.136 580.608l-31.49824 94.80192z m-29.85984-149.2992L675.1232 136.76544a102.4 102.4 0 0 1 144.81408 0l43.45856 43.4176a102.4 102.4 0 0 1 0 144.83456l-386.2528 386.2528a61.44 61.44 0 0 1-28.95872 16.26112l-149.13536 36.20864a61.44 61.44 0 0 1-72.8064-79.07328l44.66688-134.47168a61.44 61.44 0 0 1 14.86848-24.08448zM757.76 880.64a40.96 40.96 0 0 1-40.96 40.96H245.76a40.96 40.96 0 1 1 0-81.92h471.04a40.96 40.96 0 0 1 40.96 40.96z" fill="#515151" p-id="25161"></path><path d="M593.92 262.71744L651.83744 204.8l130.33472 130.33472-57.91744 57.91744z" fill="#515151" p-id="25162"></path></svg>