<?xml version="1.0" standalone="no"?><!DOCTYPE svg PUBLIC "-//W3C//DTD SVG 1.1//EN" "http://www.w3.org/Graphics/SVG/1.1/DTD/svg11.dtd"><svg t="1645957491631" class="icon" viewBox="0 0 1024 1024" version="1.1" xmlns="http://www.w3.org/2000/svg" p-id="29561" xmlns:xlink="http://www.w3.org/1999/xlink" width="32" height="32"><defs><style type="text/css"></style></defs><path d="M847.36 819.665455a363.054545 363.054545 0 0 0-78.010182-115.665455 363.054545 363.054545 0 0 0-160.814545-93.696 299.52 299.52 0 0 0 115.991272-72.238545 298.589091 298.589091 0 0 0 88.017455-212.38691c0-80.197818-31.185455-155.694545-88.017455-212.386909A298.589091 298.589091 0 0 0 512.093091 25.227636c-80.151273 0-155.648 31.185455-212.386909 88.064a298.589091 298.589091 0 0 0-88.017455 212.386909c0 80.197818 31.185455 155.648 88.017455 212.38691a299.52 299.52 0 0 0 115.944727 72.238545 363.054545 363.054545 0 0 0-160.814545 93.696 363.054545 363.054545 0 0 0-106.589091 257.349818 39.237818 39.237818 0 1 0 78.568727 0c0-76.241455 29.696-147.921455 83.595636-201.821091a283.508364 283.508364 0 0 1 201.821091-83.549091c76.241455 0 147.921455 29.649455 201.821091 83.549091a283.508364 283.508364 0 0 1 83.549091 201.821091 39.237818 39.237818 0 1 0 78.522182 0 365.986909 365.986909 0 0 0-28.765091-141.730909zM290.117818 325.632c0-122.414545 99.607273-221.882182 221.882182-221.882182a222.161455 222.161455 0 0 1 221.882182 221.882182A222.068364 222.068364 0 0 1 512 547.560727a222.161455 222.161455 0 0 1-221.882182-221.882182z" fill="#2c2c2c" opacity=".65" p-id="29562"></path></svg>